####
#
# OBJ File Generated by Meshlab
#
####
# Object flap_round.obj
#
# Vertices: 94
# Faces: 184
#
####
vn 1.2576826 -2.9778156 -2.8672400
v 0.0281187 -0.2400000 -0.4206042
vn 1.7128699 -2.9770358 -2.6208115
v 0.0382864 -0.2400000 -0.4151017
vn -3.1362281 -3.0589228 -0.1297157
v -0.0700000 -0.2400000 -0.3565000
vn 2.1204748 -2.9762487 -2.3034506
v 0.0474097 -0.2400000 -0.4080007
vn -1.2576826 -2.9778159 -2.8672404
v -0.0281187 -0.2400000 -0.4206042
vn -0.7685980 -2.9778085 -3.0351379
v -0.0171840 -0.2400000 -0.4243580
vn -0.2585516 -2.9777987 -3.1202459
v -0.0057806 -0.2400000 -0.4262609
vn 2.4706879 -2.9762444 -1.9230177
v 0.0552398 -0.2400000 -0.3994949
vn 2.7535110 -2.9762435 -1.4901237
v 0.0615632 -0.2400000 -0.3898163
vn 2.9612255 -2.9762473 -1.0165869
v 0.0662072 -0.2400000 -0.3792289
vn 1.2576861 -2.9778185 2.8672385
v 0.0281187 -0.2400000 0.4206041
vn 0.7686014 -2.9778056 3.0351367
v 0.0171840 -0.2400000 0.4243580
vn -1.7128671 -2.9770377 2.6208143
v -0.0382864 -0.2400000 0.4151016
vn -2.4706907 -2.9762466 1.9230151
v -0.0552398 -0.2400000 0.3994949
vn -2.7535110 -2.9762447 1.4901248
v -0.0615632 -0.2400000 0.3898163
vn 1.7128673 -2.9770367 2.6208134
v 0.0382864 -0.2400000 0.4151016
vn 0.2585516 -2.9777989 -3.1202459
v 0.0057806 -0.2400000 -0.4262609
vn 0.7685978 -2.9778087 -3.0351377
v 0.0171840 -0.2400000 -0.4243580
vn 3.1362281 -3.0589190 0.1297157
v 0.0700000 -0.2400000 0.3565000
vn -3.1362276 -3.0589190 0.1297156
v -0.0700000 -0.2400000 0.3565000
vn 3.1362276 -3.0589187 -0.1297156
v 0.0700000 -0.2400000 -0.3565000
vn 3.0881619 -2.9762459 -0.5153232
v 0.0690453 -0.2400000 -0.3680216
vn 3.0881629 -2.9762459 0.5153235
v 0.0690453 -0.2400000 0.3680216
vn 2.9612236 -2.9762464 1.0165881
v 0.0662072 -0.2400000 0.3792289
vn 2.7535110 -2.9762444 1.4901253
v 0.0615632 -0.2400000 0.3898163
vn 0.2585517 -2.9777994 3.1202459
v 0.0057806 -0.2400000 0.4262609
vn -0.2585517 -2.9777989 3.1202459
v -0.0057806 -0.2400000 0.4262609
vn -0.7686015 -2.9778063 3.0351367
v -0.0171840 -0.2400000 0.4243580
vn -1.2576860 -2.9778180 2.8672388
v -0.0281187 -0.2400000 0.4206041
vn -2.1204746 -2.9762440 2.3034506
v -0.0474097 -0.2400000 0.4080007
vn -2.9612248 -2.9762468 1.0165893
v -0.0662072 -0.2400000 0.3792289
vn -3.0881615 -2.9762454 0.5153241
v -0.0690453 -0.2400000 0.3680216
vn -1.7128693 -2.9770348 -2.6208119
v -0.0382864 -0.2400000 -0.4151017
vn -3.0881629 -2.9762454 -0.5153244
v -0.0690453 -0.2400000 -0.3680216
vn -2.9612243 -2.9762478 -1.0165875
v -0.0662072 -0.2400000 -0.3792289
vn -2.7535119 -2.9762440 -1.4901233
v -0.0615632 -0.2400000 -0.3898163
vn -2.4706893 -2.9762454 -1.9230176
v -0.0552398 -0.2400000 -0.3994949
vn -2.1204760 -2.9762475 -2.3034515
v -0.0474097 -0.2400000 -0.4080007
vn 2.4706905 -2.9762461 1.9230165
v 0.0552398 -0.2400000 0.3994949
vn 2.1204753 -2.9762449 2.3034518
v 0.0474097 -0.2400000 0.4080007
vn 6.2636805 0.1944322 -0.1944322
v 0.0700000 0.1700000 -0.3565000
vn 6.2636786 0.1944321 0.1944322
v 0.0700000 0.1700000 0.3565000
vn -6.2636786 0.1944320 -0.1944322
v -0.0700000 0.1700000 -0.3565000
vn -6.2636805 0.1944322 0.1944322
v -0.0700000 0.1700000 0.3565000
vn 6.1069098 0.6395926 -0.6395971
v 0.0690453 0.1815216 -0.3680216
vn 6.1069098 0.6395923 0.6395971
v 0.0690453 0.1815216 0.3680216
vn 5.7878599 1.1254407 -1.1254357
v 0.0662072 0.1927290 -0.3792289
vn 5.7878652 1.1254417 1.1254392
v 0.0662072 0.1927290 0.3792289
vn 5.3160067 1.5735040 -1.5735055
v 0.0615632 0.2033163 -0.3898163
vn 5.3160033 1.5735030 1.5735059
v 0.0615632 0.2033163 0.3898163
vn 4.7077112 1.9713970 -1.9713974
v 0.0552398 0.2129949 -0.3994949
vn 4.7077146 1.9713986 1.9713942
v 0.0552398 0.2129949 0.3994949
vn 3.9842329 2.3085132 -2.3085117
v 0.0474097 0.2215007 -0.4080007
vn 3.9842310 2.3085124 2.3085146
v 0.0474097 0.2215007 0.4080007
vn 3.3454792 2.5607388 -2.5607419
v 0.0382864 0.2286017 -0.4151017
vn 3.3454893 2.5607464 2.5607374
v 0.0382864 0.2286017 0.4151016
vn 2.8670576 2.7259223 2.7259481
v 0.0333163 0.2315632 0.4180632
vn 2.8670664 2.7259319 -2.7259450
v 0.0333163 0.2315632 -0.4180632
vn 2.4117489 2.8275545 2.8275533
v 0.0281187 0.2341041 0.4206041
vn 2.4117422 2.8275464 -2.8275557
v 0.0281187 0.2341041 -0.4206042
vn 1.9435424 2.9104135 -2.9104223
v 0.0227290 0.2362072 -0.4227072
vn 1.9435476 2.9104133 2.9104209
v 0.0227290 0.2362072 0.4227072
vn 1.4655695 2.9745758 -2.9745569
v 0.0171840 0.2378580 -0.4243580
vn 1.4655576 2.9745626 2.9745591
v 0.0171840 0.2378580 0.4243580
vn 0.9806733 3.0201187 3.0201273
v 0.0115216 0.2390453 0.4255453
vn 0.9806693 3.0201066 -3.0201273
v 0.0115216 0.2390453 -0.4255453
vn 0.4913891 3.0473263 3.0473261
v 0.0057806 0.2397609 0.4262609
vn 0.4913827 3.0473390 -3.0473270
v 0.0057806 0.2397609 -0.4262609
vn 0.0000003 3.0563769 3.0563788
v 0.0000000 0.2400000 0.4265000
vn -0.0000003 3.0563769 -3.0563788
v 0.0000000 0.2400000 -0.4265000
vn -0.4913895 3.0473342 3.0473261
v -0.0057806 0.2397609 0.4262609
vn -0.4913824 3.0473309 -3.0473270
v -0.0057806 0.2397609 -0.4262609
vn -0.9806693 3.0201066 -3.0201273
v -0.0115216 0.2390453 -0.4255453
vn -0.9806733 3.0201187 3.0201273
v -0.0115216 0.2390453 0.4255453
vn -1.4655700 2.9745755 -2.9745569
v -0.0171840 0.2378580 -0.4243580
vn -1.4655579 2.9745622 2.9745588
v -0.0171840 0.2378580 0.4243580
vn -1.9435483 2.9104133 2.9104209
v -0.0227290 0.2362072 0.4227072
vn -1.9435432 2.9104135 -2.9104226
v -0.0227290 0.2362072 -0.4227072
vn -2.4117489 2.8275566 2.8275542
v -0.0281187 0.2341041 0.4206041
vn -2.4117408 2.8275456 -2.8275564
v -0.0281187 0.2341041 -0.4206042
vn -2.8670571 2.7259240 2.7259479
v -0.0333163 0.2315632 0.4180632
vn -2.8670630 2.7259295 -2.7259448
v -0.0333163 0.2315632 -0.4180632
vn -3.3454888 2.5607440 2.5607369
v -0.0382864 0.2286017 0.4151016
vn -3.3454821 2.5607414 -2.5607424
v -0.0382864 0.2286017 -0.4151017
vn -3.9842343 2.3085148 -2.3085117
v -0.0474097 0.2215007 -0.4080007
vn -3.9842291 2.3085103 2.3085141
v -0.0474097 0.2215007 0.4080007
vn -4.7077131 1.9713964 -1.9713967
v -0.0552398 0.2129949 -0.3994949
vn -4.7077165 1.9713976 1.9713933
v -0.0552398 0.2129949 0.3994949
vn -5.3160033 1.5735019 -1.5735048
v -0.0615632 0.2033163 -0.3898163
vn -5.3160000 1.5735008 1.5735053
v -0.0615632 0.2033163 0.3898163
vn -5.7878590 1.1254394 -1.1254371
v -0.0662072 0.1927290 -0.3792289
vn -5.7878585 1.1254406 1.1254389
v -0.0662072 0.1927290 0.3792289
vn -6.1069088 0.6395937 -0.6395984
v -0.0690453 0.1815216 -0.3680216
vn -6.1069088 0.6395941 0.6395985
v -0.0690453 0.1815216 0.3680216
# 94 vertices, 0 vertices normals

f 1//1 2//2 3//3
f 3//3 2//2 4//4
f 5//5 6//6 3//3
f 3//3 6//6 7//7
f 4//4 8//8 3//3
f 3//3 8//8 9//9
f 3//3 9//9 10//10
f 11//11 12//12 13//13
f 14//14 15//15 16//16
f 7//7 17//17 3//3
f 3//3 17//17 18//18
f 3//3 18//18 1//1
f 19//19 20//20 21//21
f 21//21 20//20 3//3
f 21//21 3//3 22//22
f 22//22 3//3 10//10
f 19//19 23//23 20//20
f 20//20 23//23 24//24
f 20//20 24//24 25//25
f 26//26 27//27 28//28
f 26//26 28//28 12//12
f 12//12 28//28 29//29
f 12//12 29//29 13//13
f 11//11 13//13 16//16
f 16//16 13//13 30//30
f 16//16 30//30 14//14
f 15//15 31//31 16//16
f 16//16 31//31 32//32
f 16//16 32//32 20//20
f 5//5 3//3 33//33
f 33//33 3//3 34//34
f 33//33 34//34 35//35
f 35//35 36//36 33//33
f 33//33 36//36 37//37
f 33//33 37//37 38//38
f 25//25 39//39 20//20
f 20//20 39//39 40//40
f 20//20 40//40 16//16
f 21//21 41//41 19//19
f 19//19 41//41 42//42
f 43//43 3//3 44//44
f 44//44 3//3 20//20
f 42//42 41//41 45//45
f 42//42 45//45 46//46
f 46//46 45//45 47//47
f 46//46 47//47 48//48
f 48//48 47//47 49//49
f 48//48 49//49 50//50
f 50//50 49//49 51//51
f 50//50 51//51 52//52
f 52//52 51//51 53//53
f 52//52 53//53 54//54
f 54//54 53//53 55//55
f 54//54 55//55 56//56
f 56//56 55//55 57//57
f 57//57 55//55 58//58
f 57//57 58//58 59//59
f 58//58 60//60 59//59
f 59//59 60//60 61//61
f 59//59 61//61 62//62
f 62//62 61//61 63//63
f 62//62 63//63 64//64
f 64//64 63//63 65//65
f 65//65 63//63 66//66
f 65//65 66//66 67//67
f 67//67 66//66 68//68
f 67//67 68//68 69//69
f 69//69 68//68 70//70
f 69//69 70//70 71//71
f 70//70 72//72 71//71
f 71//71 72//72 73//73
f 71//71 73//73 74//74
f 74//74 73//73 75//75
f 74//74 75//75 76//76
f 76//76 75//75 77//77
f 77//77 75//75 78//78
f 77//77 78//78 79//79
f 79//79 78//78 80//80
f 79//79 80//80 81//81
f 81//81 80//80 82//82
f 81//81 82//82 83//83
f 82//82 84//84 83//83
f 83//83 84//84 85//85
f 83//83 85//85 86//86
f 86//86 85//85 87//87
f 86//86 87//87 88//88
f 88//88 87//87 89//89
f 88//88 89//89 90//90
f 90//90 89//89 91//91
f 90//90 91//91 92//92
f 92//92 91//91 93//93
f 92//92 93//93 94//94
f 94//94 93//93 43//43
f 94//94 43//43 44//44
f 44//44 20//20 32//32
f 44//44 32//32 94//94
f 94//94 32//32 31//31
f 94//94 31//31 92//92
f 92//92 31//31 15//15
f 92//92 15//15 90//90
f 90//90 15//15 14//14
f 90//90 14//14 88//88
f 88//88 14//14 30//30
f 88//88 30//30 86//86
f 86//86 30//30 13//13
f 86//86 13//13 83//83
f 83//83 13//13 81//81
f 81//81 13//13 29//29
f 81//81 29//29 79//79
f 79//79 29//29 77//77
f 77//77 29//29 28//28
f 77//77 28//28 76//76
f 76//76 28//28 74//74
f 74//74 28//28 27//27
f 74//74 27//27 71//71
f 71//71 27//27 69//69
f 69//69 27//27 26//26
f 69//69 26//26 67//67
f 67//67 26//26 65//65
f 65//65 26//26 12//12
f 65//65 12//12 64//64
f 64//64 12//12 62//62
f 62//62 12//12 11//11
f 62//62 11//11 59//59
f 59//59 11//11 57//57
f 57//57 11//11 16//16
f 57//57 16//16 56//56
f 56//56 16//16 40//40
f 56//56 40//40 54//54
f 54//54 40//40 39//39
f 54//54 39//39 52//52
f 52//52 39//39 25//25
f 52//52 25//25 50//50
f 50//50 25//25 24//24
f 50//50 24//24 48//48
f 48//48 24//24 23//23
f 48//48 23//23 46//46
f 46//46 23//23 19//19
f 46//46 19//19 42//42
f 41//41 21//21 22//22
f 41//41 22//22 45//45
f 45//45 22//22 10//10
f 45//45 10//10 47//47
f 47//47 10//10 9//9
f 47//47 9//9 49//49
f 49//49 9//9 8//8
f 49//49 8//8 51//51
f 51//51 8//8 4//4
f 51//51 4//4 53//53
f 53//53 4//4 2//2
f 53//53 2//2 55//55
f 55//55 2//2 58//58
f 58//58 2//2 1//1
f 58//58 1//1 60//60
f 60//60 1//1 61//61
f 61//61 1//1 18//18
f 61//61 18//18 63//63
f 63//63 18//18 66//66
f 66//66 18//18 17//17
f 66//66 17//17 68//68
f 68//68 17//17 70//70
f 70//70 17//17 7//7
f 70//70 7//7 72//72
f 72//72 7//7 73//73
f 73//73 7//7 6//6
f 73//73 6//6 75//75
f 75//75 6//6 78//78
f 78//78 6//6 5//5
f 78//78 5//5 80//80
f 80//80 5//5 82//82
f 82//82 5//5 33//33
f 82//82 33//33 84//84
f 84//84 33//33 38//38
f 84//84 38//38 85//85
f 85//85 38//38 37//37
f 85//85 37//37 87//87
f 87//87 37//37 36//36
f 87//87 36//36 89//89
f 89//89 36//36 35//35
f 89//89 35//35 91//91
f 91//91 35//35 34//34
f 91//91 34//34 93//93
f 93//93 34//34 3//3
f 93//93 3//3 43//43
# 184 faces, 0 coords texture

# End of File
