# Blender 3.6.0
# www.blender.org
mtllib new_rock_3.mtl
o rock.001
v -0.510794 -0.339478 1.872732
v -0.561939 -0.514744 -1.922318
v -0.757947 0.729686 -2.592571
v 0.545198 0.773328 2.647601
v 0.667115 0.797255 -3.007277
v 0.551354 -0.514536 -2.071846
v 0.423476 -0.499459 1.688420
v -0.098959 0.791322 -0.003543
v -0.643574 -0.617203 -0.305051
v -0.700715 0.075510 -0.151782
v -0.072525 0.103471 2.942333
v -0.058795 0.914632 -3.323929
v -0.047227 -0.607649 -2.180513
v 0.024543 -0.657075 2.038792
v 0.575829 -0.613295 -0.094065
v 0.715795 0.865880 -0.166950
v -0.662774 -0.047741 -2.448305
v 0.556313 -0.049267 2.154572
v 0.717484 0.060478 -2.871512
v -0.315045 0.328729 1.037672
v 0.214838 -0.278104 2.884938
v -0.041183 -0.757471 -0.072713
v 0.180847 0.863494 -1.164243
v -0.831978 -0.229150 -1.048070
v -0.033286 0.037895 -3.092491
v 0.774027 0.033044 -0.147774
v -0.394554 0.751044 -1.366566
v 0.185026 0.841170 1.373163
v -0.625977 -0.551288 0.772393
v -0.593955 -0.551734 -1.269042
v -0.760276 -0.152412 1.000056
v -0.777547 0.399765 -1.377909
v -0.322830 -0.170412 2.578550
v 0.246307 0.432008 2.956686
v -0.398770 0.804290 -3.069684
v 0.348657 0.884116 -3.272724
v -0.344796 -0.522318 -2.072196
v 0.293661 -0.609724 -2.171254
v -0.260988 -0.557989 2.036093
v 0.283460 -0.600332 1.907772
v 0.560068 -0.559438 -1.208552
v 0.530113 -0.594092 0.968043
v 0.645326 0.821816 1.299024
v 0.670618 0.806798 -1.658807
v -0.647663 -0.350822 -2.226541
v -0.648172 0.297781 -2.537799
v 0.537996 0.301965 2.349710
v 0.489073 -0.329043 1.936869
v 0.683899 0.432953 -2.986835
v 0.638158 -0.245312 -2.550935
v -0.212451 0.240638 1.888886
v -0.326017 0.626297 0.635484
v -0.483761 0.214408 0.531066
v 0.114283 -0.427624 2.622661
v 0.437366 -0.187085 2.735932
v 0.096385 -0.118042 2.990200
v -0.361481 -0.725682 -0.126028
v -0.048029 -0.779853 -1.210776
v 0.279460 -0.720104 -0.070904
v -0.024084 -0.759971 1.068149
v 0.050492 0.924784 -0.665341
v 0.390071 0.855594 -0.722576
v 0.080737 1.001704 -2.079226
v -0.826767 -0.097689 -0.682763
v -0.773873 -0.142574 -1.718333
v -0.724516 -0.386085 -0.690873
v -0.391422 0.006913 -2.903899
v -0.056505 0.412053 -3.332642
v 0.362889 0.029894 -3.126208
v -0.045492 -0.351449 -2.795089
v 0.704693 0.007032 1.140044
v 0.733436 -0.325774 -0.126621
v 0.790198 0.048630 -1.542663
v 0.802837 0.428107 -0.141549
v -0.450364 0.029516 1.577042
v 0.034869 0.474619 1.767720
v -0.499365 0.501719 -0.438709
v -0.084629 -0.310939 2.656945
v 0.303080 -0.370706 2.408719
v 0.399184 0.106150 2.952801
v -0.307006 -0.622338 1.007232
v -0.355725 -0.657934 -1.202826
v 0.283701 -0.699561 -1.191761
v 0.287838 -0.756793 1.025412
v -0.181862 0.888990 -1.842845
v 0.326710 0.911197 0.378070
v 0.377452 0.861642 -1.950972
v -0.748721 -0.323457 0.149704
v -0.760521 0.114478 -1.655076
v -0.699117 -0.362395 -1.519269
v -0.392212 -0.346483 -2.627711
v -0.433517 0.379042 -3.083016
v 0.361882 0.431060 -3.277544
v 0.332044 -0.326660 -2.783045
v 0.684201 0.389688 1.244285
v 0.634098 -0.321716 1.034816
v 0.685257 -0.284271 -1.383448
v 0.746736 0.432567 -1.614270
vn -0.9013 0.3510 0.2538
vn -0.8311 0.5165 0.2059
vn -0.8368 0.5114 0.1956
vn -0.7545 0.6397 0.1466
vn -0.7289 0.6617 0.1755
vn -0.7634 0.6170 0.1914
vn -0.8029 0.5646 0.1911
vn -0.8362 0.5291 0.1446
vn -0.9269 0.3590 0.1096
vn -0.7266 0.6579 0.1981
vn -0.3367 0.9324 0.1316
vn -0.7137 0.6699 0.2047
vn -0.7002 0.6913 0.1786
vn -0.4904 0.8680 0.0777
vn -0.7784 0.6032 0.1739
vn -0.3660 0.9292 0.0512
vn -0.9107 0.4046 0.0837
vn -0.7567 0.6404 0.1314
vn -0.5469 0.8309 0.1026
vn -0.5847 -0.7763 0.2358
vn -0.5054 -0.8170 0.2777
vn -0.5104 -0.6663 0.5437
vn -0.6481 -0.5731 0.5015
vn -0.3749 -0.8903 0.2584
vn -0.3600 -0.7912 0.4944
vn -0.3689 -0.7197 0.5882
vn -0.5128 -0.5664 0.6452
vn -0.5998 -0.4419 0.6671
vn 0.7717 -0.6104 0.1787
vn 0.8640 -0.4705 0.1791
vn 0.6476 -0.7230 0.2408
vn 0.5085 -0.8326 0.2195
vn 0.9603 -0.2293 0.1585
vn 0.6462 -0.7304 0.2211
vn 0.5184 -0.8163 0.2548
vn 0.4949 -0.8245 0.2742
vn 0.3342 -0.9105 0.2434
vn 0.9567 -0.0013 0.2910
vn 0.9014 0.0008 0.4330
vn 0.9449 -0.0197 0.3267
vn 0.9782 -0.0139 0.2073
vn -0.0225 0.0669 0.9975
vn 0.5028 -0.3785 0.7771
vn 0.9787 -0.0427 0.2010
vn -0.3953 -0.9128 0.1025
vn -0.4037 -0.9093 0.1006
vn -0.3479 -0.9373 -0.0193
vn -0.2996 -0.9538 0.0224
vn -0.0716 -0.9974 0.0056
vn -0.1225 -0.9899 0.0715
vn -0.3001 -0.9490 -0.0967
vn -0.3040 -0.9485 -0.0892
vn -0.2958 -0.9375 -0.1834
vn -0.3186 -0.9184 -0.2347
vn -0.1107 -0.9569 -0.2685
vn -0.0733 -0.9941 -0.0799
vn 0.2772 -0.9591 -0.0569
vn 0.2743 -0.9616 -0.0122
vn 0.2616 -0.9301 -0.2579
vn 0.4402 -0.8753 -0.2001
vn 0.4028 -0.9139 -0.0501
vn 0.4193 -0.9077 -0.0170
vn 0.3345 -0.9396 0.0728
vn 0.7411 -0.6653 0.0904
vn -0.2414 0.9698 0.0351
vn -0.3411 0.9400 -0.0005
vn -0.1495 0.9886 0.0184
vn 0.1106 0.9930 0.0423
vn -0.0107 0.9999 -0.0007
vn -0.3567 0.9341 -0.0135
vn 0.0509 0.9972 0.0557
vn 0.0592 0.9970 0.0490
vn -0.0767 0.9966 0.0294
vn 0.1153 0.9933 -0.0021
vn 0.1494 0.9885 -0.0255
vn 0.2240 0.9746 0.0020
vn 0.2380 0.9709 -0.0262
vn 0.2129 0.9770 0.0073
vn 0.1322 0.9911 -0.0156
vn 0.2450 0.9687 -0.0404
vn -0.9171 -0.3791 0.1231
vn -0.9877 -0.1504 0.0428
vn -0.9197 -0.3774 0.1084
vn -0.9874 0.1520 0.0440
vn -0.9982 -0.0487 0.0337
vn -0.9684 -0.2423 -0.0597
vn -0.9098 -0.4147 -0.0134
vn -0.9224 -0.3861 0.0073
vn -0.9338 -0.1209 -0.3367
vn -0.9434 -0.1223 -0.3082
vn -0.9973 0.0140 -0.0727
vn -0.9182 -0.2101 -0.3359
vn -0.9850 -0.1334 -0.1092
vn -0.8270 -0.5578 -0.0706
vn -0.8656 -0.4967 -0.0628
vn -0.8604 -0.5027 -0.0836
vn -0.9068 -0.3545 -0.2281
vn -0.3517 -0.8879 -0.2964
vn -0.2895 -0.9030 -0.3174
vn -0.6266 -0.4252 -0.6532
vn -0.6311 -0.4766 -0.6120
vn -0.1908 -0.5457 -0.8160
vn -0.1568 -0.7788 -0.6074
vn -0.7879 -0.0797 -0.6106
vn -0.7190 -0.0210 -0.6947
vn -0.5798 0.0396 -0.8138
vn -0.4207 -0.4721 -0.7747
vn -0.0714 -0.3073 -0.9489
vn 0.0813 -0.2227 -0.9715
vn 0.0120 -0.5508 -0.8345
vn 0.1279 0.0161 -0.9917
vn 0.6432 -0.1015 -0.7589
vn 0.6564 0.0097 -0.7544
vn 0.6396 -0.1237 -0.7587
vn 0.5923 -0.4188 -0.6883
vn 0.5787 -0.4779 -0.6609
vn 0.2607 -0.7839 -0.5635
vn 0.4928 -0.7457 -0.4483
vn 0.9949 0.0313 0.0961
vn 0.9943 0.0640 0.0858
vn 0.9869 -0.1243 0.1033
vn 0.9951 -0.0957 0.0256
vn 0.9963 0.0832 0.0233
vn 0.9856 0.1684 0.0145
vn 0.9379 -0.3299 0.1071
vn 0.8966 -0.4427 0.0145
vn 0.9475 -0.3194 0.0168
vn 0.9408 -0.3371 -0.0357
vn 0.9928 -0.1145 -0.0347
vn 0.8952 -0.4436 -0.0423
vn 0.9130 -0.4058 -0.0419
vn 0.9428 -0.3294 -0.0501
vn 0.9983 -0.0296 -0.0511
vn 0.9934 0.1096 -0.0326
vn 0.9873 0.1562 -0.0305
vn 0.9935 0.1080 -0.0355
vn 0.9921 0.1226 -0.0246
s 1
f 1//1 33//2 75//3 31//4
f 33//2 11//5 51//6 75//3
f 75//3 51//6 20//7 53//8
f 31//4 75//3 53//8 10//9
f 4//10 28//11 76//12 34//13
f 28//11 8//14 52//15 76//12
f 76//12 52//15 20//7 51//6
f 34//13 76//12 51//6 11//5
f 3//16 32//17 77//18 27//19
f 32//17 10//9 53//8 77//18
f 77//18 53//8 20//7 52//15
f 27//19 77//18 52//15 8//14
f 1//20 39//21 78//22 33//23
f 39//21 14//24 54//25 78//22
f 78//22 54//25 21//26 56//27
f 33//23 78//22 56//27 11//28
f 7//29 48//30 79//31 40//32
f 48//30 18//33 55//34 79//31
f 79//31 55//34 21//35 54//36
f 40//32 79//31 54//36 14//37
f 4//38 34//39 80//40 47//41
f 34//42 11//42 56//42 80//42
f 80//43 56//43 21//43 55//43
f 47//41 80//40 55//44 18//33
f 1//20 29//45 81//46 39//21
f 29//45 9//47 57//48 81//46
f 81//46 57//48 22//49 60//50
f 39//21 81//46 60//50 14//24
f 9//47 30//51 82//52 57//48
f 30//51 2//53 37//54 82//52
f 82//52 37//54 13//55 58//56
f 57//48 82//52 58//56 22//49
f 22//49 58//56 83//57 59//58
f 58//56 13//55 38//59 83//57
f 83//57 38//59 6//60 41//61
f 59//58 83//57 41//61 15//62
f 14//37 60//50 84//63 40//32
f 60//50 22//49 59//58 84//63
f 84//63 59//58 15//62 42//64
f 40//32 84//63 42//64 7//29
f 3//16 27//19 85//65 35//66
f 27//19 8//14 61//67 85//65
f 85//65 61//67 23//68 63//69
f 35//66 85//65 63//69 12//70
f 4//71 43//72 86//73 28//11
f 43//72 16//74 62//75 86//73
f 86//73 62//75 23//68 61//67
f 28//11 86//73 61//67 8//14
f 5//76 36//77 87//78 44//79
f 36//77 12//80 63//69 87//78
f 87//78 63//69 23//68 62//75
f 44//79 87//78 62//75 16//74
f 1//81 31//81 88//82 29//83
f 31//84 10//9 64//85 88//82
f 88//82 64//85 24//86 66//87
f 29//83 88//82 66//87 9//88
f 3//89 46//90 89//91 32//17
f 46//90 17//92 65//93 89//91
f 89//91 65//93 24//86 64//85
f 32//17 89//91 64//85 10//9
f 2//94 30//95 90//96 45//97
f 30//95 9//88 66//87 90//96
f 90//96 66//87 24//86 65//93
f 45//97 90//96 65//93 17//92
f 2//53 45//98 91//99 37//54
f 45//97 17//92 67//100 91//101
f 91//101 67//100 25//102 70//103
f 37//54 91//99 70//103 13//55
f 17//92 46//90 92//104 67//100
f 46//90 3//89 35//105 92//104
f 92//104 35//105 12//106 68//106
f 67//100 92//107 68//108 25//102
f 25//102 68//108 93//109 69//110
f 68//108 12//111 36//111 93//109
f 93//112 36//113 5//113 49//114
f 69//115 93//112 49//114 19//116
f 13//55 70//103 94//117 38//59
f 70//103 25//102 69//110 94//117
f 94//117 69//115 19//116 50//118
f 38//59 94//117 50//118 6//60
f 4//38 47//41 95//119 43//120
f 47//41 18//33 71//121 95//119
f 95//119 71//121 26//122 74//123
f 43//120 95//119 74//123 16//124
f 18//33 48//30 96//125 71//121
f 48//30 7//29 42//64 96//125
f 96//125 42//64 15//126 72//127
f 71//121 96//125 72//127 26//122
f 26//122 72//127 97//128 73//129
f 72//127 15//126 41//130 97//128
f 97//128 41//130 6//131 50//132
f 73//129 97//128 50//132 19//133
f 16//124 74//123 98//134 44//135
f 74//123 26//122 73//129 98//134
f 98//134 73//129 19//133 49//136
f 44//135 98//134 49//136 5//137
