# Blender 3.6.0
# www.blender.org
mtllib new_rock.mtl
o rock
v 0.160074 0.160063 -0.133200
v 0.211530 -0.246779 0.877341
v 0.238893 -0.276465 -0.935059
v -0.220413 -0.220563 -1.078599
v -0.260722 0.224446 -1.005710
v -0.262818 0.228776 0.804311
v -0.237560 -0.236943 1.090890
v 0.244119 -0.061715 0.722652
v 0.287519 -0.046726 -0.895315
v 0.002623 -0.307361 -1.231208
v -0.044980 0.288162 -0.945095
v -0.038069 0.305528 0.681429
v 0.001270 -0.276095 1.218750
v -0.260699 -0.001337 1.168793
v -0.273543 -0.000436 -1.263532
v 0.282575 -0.339832 -0.012728
v -0.276406 -0.276395 0.018817
v -0.301841 0.253543 -0.104300
v 0.352383 -0.148410 -0.064903
v 0.010321 0.005755 -1.567018
v -0.013520 -0.013967 1.383563
v -0.148669 0.349293 -0.144741
v -0.002824 -0.403579 0.024519
v -0.356500 0.000202 -0.034821
v 0.230469 0.064730 0.350295
v 0.238726 -0.172874 0.889143
v 0.223647 0.059233 -0.574857
v 0.261066 -0.178439 -0.994159
v 0.141373 -0.288370 -1.109684
v -0.136390 -0.261764 -1.204187
v 0.073435 0.242110 -0.603160
v -0.175435 0.250558 -1.057764
v 0.073267 0.242431 0.324199
v -0.176059 0.261876 0.825381
v 0.147812 -0.292386 1.084841
v -0.133222 -0.254621 1.211779
v -0.256768 0.123333 1.007386
v -0.258429 -0.134017 1.193199
v -0.260495 -0.136756 -1.222572
v -0.262581 0.127269 -1.164927
v 0.238757 -0.281415 0.526426
v 0.254143 -0.300006 -0.562867
v -0.260384 -0.260642 -0.646744
v -0.281947 -0.281290 0.677366
v -0.298613 0.253021 -0.648116
v -0.287355 0.244149 0.439724
v 0.334011 -0.105511 0.277640
v 0.347969 -0.235408 -0.041556
v 0.316388 -0.109350 -0.426606
v 0.151514 -0.018323 -1.295917
v 0.018888 -0.183734 -1.556821
v -0.163289 0.004630 -1.556092
v -0.022523 0.139931 -1.316541
v -0.024712 0.135997 1.102783
v -0.147016 -0.005853 1.411683
v -0.006835 -0.146312 1.433132
v 0.157819 -0.010722 1.137494
v -0.101102 0.357840 -0.499222
v -0.227168 0.328555 -0.131260
v -0.099254 0.365594 0.209084
v -0.000813 -0.358940 0.704281
v -0.151728 -0.360054 0.027918
v -0.001865 -0.373271 -0.669861
v 0.153470 -0.407730 0.010384
v -0.338368 -0.143007 -0.003422
v -0.348843 -0.000298 0.647206
v -0.343925 0.137756 -0.070234
v -0.408504 -0.004599 -0.727564
v 0.293098 -0.018003 -0.098597
v 0.301518 -0.204631 0.449882
v 0.314907 -0.208977 -0.542735
v 0.150144 0.148439 -1.027214
v 0.148894 -0.166685 -1.335065
v -0.164446 -0.168122 -1.518454
v -0.157789 0.130910 -1.370937
v 0.120193 0.120814 0.791109
v -0.156518 0.126507 1.186124
v -0.132802 -0.133646 1.430053
v 0.145214 -0.161438 1.245260
v -0.009395 0.308687 -0.149610
v -0.210431 0.320205 -0.625850
v -0.210438 0.322119 0.367678
v 0.135376 -0.332083 0.627991
v -0.153578 -0.358651 0.709075
v -0.143508 -0.332468 -0.662914
v 0.142532 -0.359846 -0.621839
v -0.354843 -0.152868 -0.692976
v -0.338303 -0.145202 0.678160
v -0.328369 0.134291 0.550642
v -0.364326 0.143375 -0.697312
vn 0.7388 0.6739 -0.0006
vn 0.8117 0.5801 0.0686
vn 0.8640 0.5034 -0.0104
vn 0.8329 0.5526 -0.0310
vn 0.9365 0.3165 0.1511
vn 0.9725 0.2158 0.0870
vn 0.9851 0.1709 -0.0167
vn 0.9709 0.2333 -0.0548
vn 0.9558 0.2545 -0.1475
vn 0.7978 -0.5848 0.1467
vn 0.7212 -0.6808 0.1278
vn 0.9604 -0.2393 0.1429
vn 0.9713 -0.1204 0.2049
vn 0.6866 -0.7266 0.0230
vn 0.9495 -0.3135 0.0107
vn 0.8683 -0.4601 -0.1854
vn 0.9372 -0.2340 -0.2586
vn 0.9600 -0.2638 -0.0936
vn 0.6969 -0.7107 -0.0965
vn 0.7060 0.6854 -0.1784
vn 0.6503 0.7584 -0.0448
vn 0.8578 0.3611 -0.3657
vn 0.6531 0.6730 -0.3471
vn 0.3492 0.8526 -0.3888
vn 0.2320 0.9508 -0.2054
vn 0.9092 0.0567 -0.4124
vn 0.5271 -0.8128 -0.2481
vn 0.5820 -0.7432 -0.3299
vn 0.0809 -0.9607 -0.2656
vn 0.5238 -0.7864 -0.3275
vn 0.8751 0.0566 -0.4807
vn -0.1409 -0.1324 -0.9811
vn -0.2375 -0.9211 -0.3084
vn -0.4670 -0.8633 -0.1913
vn -0.3594 -0.8898 -0.2811
vn -0.6574 -0.7405 -0.1396
vn -0.8607 -0.4577 -0.2232
vn -0.9387 -0.1185 -0.3238
vn -0.9431 -0.1846 -0.2765
vn 0.0515 0.8897 -0.4536
vn -0.2842 0.9068 -0.3115
vn 0.0437 0.8587 -0.5106
vn -0.7898 0.5017 -0.3530
vn -0.8260 0.4429 -0.3485
vn -0.8632 0.3975 -0.3111
vn -0.8028 0.5157 -0.2993
vn -0.7017 0.6807 -0.2102
vn 0.6654 0.7446 0.0520
vn 0.7506 0.6398 0.1649
vn 0.6725 0.7236 0.1557
vn 0.3742 0.8591 0.3490
vn 0.3162 0.8477 0.4260
vn 0.8134 0.4863 0.3193
vn -0.0954 0.9751 0.2003
vn -0.2505 0.9231 0.2918
vn 0.1680 0.8855 0.4332
vn -0.5347 0.8147 0.2245
vn -0.8011 0.5304 0.2773
vn -0.7059 0.6001 0.3763
vn -0.9125 0.2512 0.3230
vn -0.7420 0.5534 0.3783
vn 0.1937 0.8602 0.4717
vn 0.1133 0.2596 0.9590
vn -0.8947 0.0167 0.4464
vn -0.8942 -0.2861 0.3442
vn -0.6664 -0.6305 0.3979
vn -0.7240 -0.6546 0.2178
vn -0.3693 -0.8570 0.3593
vn -0.1317 -0.8587 0.4953
vn -0.0548 -0.9534 0.2965
vn 0.8897 0.1540 0.4299
vn 0.7693 0.2980 0.5651
vn 0.4758 -0.7156 0.5114
vn 0.9203 -0.3105 0.2379
vn 0.4968 0.8678 -0.0067
vn 0.5019 0.8639 -0.0413
vn 0.2795 0.9601 -0.0112
vn 0.5363 0.8438 0.0185
vn -0.7557 0.6503 -0.0776
vn -0.3900 0.9144 -0.1084
vn -0.8157 0.5782 0.0157
vn -0.5019 0.8649 0.0001
vn -0.2964 0.9551 -0.0058
vn -0.2467 0.9672 -0.0610
vn -0.4375 0.8947 0.0900
vn -0.7950 0.6021 0.0734
vn -0.2769 0.9599 0.0442
vn 0.6092 -0.7886 0.0837
vn 0.3551 -0.9292 0.1029
vn 0.1277 -0.9843 0.1223
vn 0.0047 -0.9939 0.1101
vn -0.0698 -0.9975 0.0084
vn 0.2888 -0.9571 0.0232
vn -0.3105 -0.9449 0.1038
vn -0.5092 -0.8576 0.0716
vn -0.7353 -0.6776 -0.0132
vn -0.3807 -0.9246 -0.0121
vn -0.4223 -0.9028 -0.0814
vn -0.0850 -0.9920 -0.0930
vn -0.6852 -0.7252 -0.0676
vn 0.2748 -0.9569 -0.0935
vn 0.4278 -0.8975 -0.1073
vn -0.8955 -0.4387 -0.0751
vn -0.9465 -0.3225 0.0108
vn -0.9994 -0.0071 0.0327
vn -0.9949 -0.0037 -0.1011
vn -0.9213 -0.3829 0.0681
vn -0.9722 -0.2193 0.0824
vn -0.9926 0.0756 0.0951
vn -0.9645 0.2519 0.0789
vn -0.9592 0.2809 0.0310
vn -0.9372 0.3275 0.1202
vn -0.9347 0.3453 -0.0848
s 1
f 1//1 25//2 69//3 27//4
f 25//2 8//5 47//6 69//3
f 69//3 47//6 19//7 49//8
f 27//4 69//3 49//8 9//9
f 2//10 41//11 70//12 26//13
f 41//11 16//14 48//15 70//12
f 70//12 48//15 19//7 47//6
f 26//13 70//12 47//6 8//5
f 3//16 28//17 71//18 42//19
f 28//17 9//9 49//8 71//18
f 71//18 49//8 19//7 48//15
f 42//19 71//18 48//15 16//14
f 1//1 27//4 72//20 31//21
f 27//4 9//9 50//22 72//20
f 72//20 50//22 20//23 53//24
f 31//21 72//20 53//24 11//25
f 9//9 28//17 73//26 50//22
f 28//17 3//16 29//27 73//28
f 73//28 29//27 10//29 51//30
f 50//22 73//26 51//31 20//31
f 20//32 51//32 74//32 52//32
f 51//33 10//29 30//34 74//35
f 74//35 30//34 4//36 39//37
f 52//38 74//38 39//37 15//39
f 11//25 53//24 75//40 32//41
f 53//24 20//42 52//42 75//40
f 75//43 52//44 15//45 40//46
f 32//41 75//43 40//46 5//47
f 1//1 33//48 76//49 25//2
f 33//48 12//50 54//51 76//49
f 76//49 54//51 21//52 57//53
f 25//2 76//49 57//53 8//5
f 12//54 34//55 77//56 54//51
f 34//55 6//57 37//58 77//59
f 77//59 37//58 14//60 55//61
f 54//51 77//56 55//62 21//52
f 21//63 55//63 78//63 56//63
f 55//64 14//60 38//65 78//64
f 78//66 38//65 7//67 36//68
f 56//69 78//69 36//68 13//70
f 8//5 57//53 79//71 26//13
f 57//53 21//72 56//72 79//71
f 79//73 56//73 13//73 35//73
f 26//13 79//71 35//74 2//10
f 1//1 31//21 80//75 33//48
f 31//21 11//25 58//76 80//75
f 80//75 58//76 22//77 60//78
f 33//48 80//75 60//78 12//50
f 5//47 45//79 81//80 32//41
f 45//79 18//81 59//82 81//80
f 81//80 59//82 22//83 58//84
f 32//41 81//80 58//84 11//25
f 6//57 34//55 82//85 46//86
f 34//55 12//54 60//87 82//85
f 82//85 60//87 22//83 59//82
f 46//86 82//85 59//82 18//81
f 2//10 35//88 83//89 41//11
f 35//90 13//70 61//91 83//89
f 83//89 61//91 23//92 64//93
f 41//11 83//89 64//93 16//14
f 13//70 36//68 84//94 61//91
f 36//68 7//67 44//95 84//94
f 84//94 44//95 17//96 62//97
f 61//91 84//94 62//97 23//92
f 23//92 62//97 85//98 63//99
f 62//97 17//96 43//100 85//98
f 85//98 43//100 4//36 30//34
f 63//99 85//98 30//34 10//29
f 16//14 64//93 86//101 42//19
f 64//93 23//92 63//99 86//101
f 86//101 63//99 10//29 29//27
f 42//19 86//101 29//27 3//102
f 4//36 43//100 87//103 39//37
f 43//100 17//96 65//104 87//103
f 87//103 65//104 24//105 68//106
f 39//37 87//103 68//106 15//39
f 17//96 44//107 88//108 65//104
f 44//107 7//67 38//65 88//108
f 88//108 38//65 14//60 66//109
f 65//104 88//108 66//109 24//105
f 24//105 66//109 89//110 67//111
f 66//109 14//60 37//58 89//110
f 89//110 37//58 6//112 46//86
f 67//111 89//110 46//86 18//81
f 15//45 68//106 90//113 40//46
f 68//106 24//105 67//111 90//113
f 90//113 67//111 18//81 45//79
f 40//46 90//113 45//79 5//47
